<svg width="77" height="79" viewBox="0 0 77 79" fill="none" xmlns="http://www.w3.org/2000/svg">
<path d="M39 51V2C39 1.44772 38.5523 1 38 1H1C0.447715 1 0 1.44772 0 2V59.602C0 59.8576 0.0978786 60.1035 0.273531 60.2892L17.2041 78.1872C17.393 78.3869 17.6557 78.5 17.9306 78.5H58.5694C58.8443 78.5 59.107 78.3869 59.2959 78.1872L76.2265 60.2892C76.4021 60.1035 76.5 59.8576 76.5 59.602V32.5C76.5 31.9477 76.0523 31.5 75.5 31.5H65.5C64.9477 31.5 64.5 31.9477 64.5 32.5V54.1122C64.5 54.3617 64.4067 54.6022 64.2385 54.7864L54.2974 65.6743C54.1079 65.8818 53.8399 66 53.5589 66H23.4273C23.1544 66 22.8933 65.8885 22.7046 65.6912L12.2774 54.79C12.0994 54.6039 12 54.3563 12 54.0987V13C12 12.4477 12.4477 12 13 12H26C26.5523 12 27 12.4477 27 13V51C27 51.5523 27.4477 52 28 52H38C38.5523 52 39 51.5523 39 51Z" fill="white"/>
<path d="M76.5 5V18.5C76.5 21.2614 74.2614 23.5 71.5 23.5H58.5C55.7386 23.5 53.5 21.2614 53.5 18.5V5C53.5 2.23858 55.7386 0 58.5 0H71.5C74.2614 0 76.5 2.23858 76.5 5Z" fill="white"/>
</svg>
