<svg width="366" height="79" viewBox="0 0 366 79" fill="none" xmlns="http://www.w3.org/2000/svg">
<path d="M39.5 51V2C39.5 1.44772 39.0523 1 38.5 1H1.5C0.947715 1 0.5 1.44772 0.5 2V59.602C0.5 59.8576 0.597879 60.1035 0.773531 60.2892L17.7041 78.1872C17.893 78.3869 18.1557 78.5 18.4306 78.5H59.0694C59.3443 78.5 59.607 78.3869 59.7959 78.1872L76.7265 60.2892C76.9021 60.1035 77 59.8576 77 59.602V32.5C77 31.9477 76.5523 31.5 76 31.5H66C65.4477 31.5 65 31.9477 65 32.5V54.1122C65 54.3617 64.9067 54.6022 64.7385 54.7864L54.7974 65.6743C54.6079 65.8818 54.3399 66 54.0589 66H23.9273C23.6544 66 23.3933 65.8885 23.2046 65.6912L12.7774 54.79C12.5994 54.6039 12.5 54.3563 12.5 54.0987V13C12.5 12.4477 12.9477 12 13.5 12H26.5C27.0523 12 27.5 12.4477 27.5 13V51C27.5 51.5523 27.9477 52 28.5 52H38.5C39.0523 52 39.5 51.5523 39.5 51Z" fill="white"/>
<path d="M77 5V18.5C77 21.2614 74.7614 23.5 72 23.5H59C56.2386 23.5 54 21.2614 54 18.5V5C54 2.23858 56.2386 0 59 0H72C74.7614 0 77 2.23858 77 5Z" fill="white"/>
<path d="M107.752 62L88.424 17.2H99.624L116.52 56.88H109.928L127.08 17.2H137.384L117.992 62H107.752ZM140.343 62V27.568H150.327V62H140.343ZM145.335 22.768C143.5 22.768 142.007 22.2347 140.855 21.168C139.703 20.1013 139.127 18.7787 139.127 17.2C139.127 15.6213 139.703 14.2987 140.855 13.232C142.007 12.1653 143.5 11.632 145.335 11.632C147.17 11.632 148.663 12.144 149.815 13.168C150.967 14.1493 151.543 15.4293 151.543 17.008C151.543 18.672 150.967 20.0587 149.815 21.168C148.706 22.2347 147.212 22.768 145.335 22.768ZM170.537 62.512C167.593 62.512 164.756 62.1707 162.025 61.488C159.337 60.7627 157.204 59.8667 155.625 58.8L158.953 51.632C160.532 52.6133 162.388 53.424 164.521 54.064C166.697 54.6613 168.83 54.96 170.921 54.96C173.225 54.96 174.846 54.6827 175.785 54.128C176.766 53.5733 177.257 52.8053 177.257 51.824C177.257 51.0133 176.873 50.416 176.105 50.032C175.38 49.6053 174.398 49.2853 173.161 49.072C171.924 48.8587 170.558 48.6453 169.065 48.432C167.614 48.2187 166.142 47.9413 164.649 47.6C163.156 47.216 161.79 46.6613 160.553 45.936C159.316 45.2107 158.313 44.2293 157.545 42.992C156.82 41.7547 156.457 40.1547 156.457 38.192C156.457 36.016 157.076 34.096 158.313 32.432C159.593 30.768 161.428 29.4667 163.817 28.528C166.206 27.5467 169.065 27.056 172.393 27.056C174.74 27.056 177.129 27.312 179.561 27.824C181.993 28.336 184.02 29.0827 185.641 30.064L182.313 37.168C180.649 36.1867 178.964 35.5253 177.257 35.184C175.593 34.8 173.972 34.608 172.393 34.608C170.174 34.608 168.553 34.9067 167.529 35.504C166.505 36.1013 165.993 36.8693 165.993 37.808C165.993 38.6613 166.356 39.3013 167.081 39.728C167.849 40.1547 168.852 40.496 170.089 40.752C171.326 41.008 172.67 41.2427 174.121 41.456C175.614 41.6267 177.108 41.904 178.601 42.288C180.094 42.672 181.438 43.2267 182.633 43.952C183.87 44.6347 184.873 45.5947 185.641 46.832C186.409 48.0267 186.793 49.6053 186.793 51.568C186.793 53.7013 186.153 55.6 184.873 57.264C183.593 58.8853 181.737 60.1653 179.305 61.104C176.916 62.0427 173.993 62.512 170.537 62.512ZM206.841 62.512C203.982 62.512 201.422 61.9573 199.161 60.848C196.942 59.7387 195.214 58.0533 193.977 55.792C192.74 53.488 192.121 50.5653 192.121 47.024V27.568H202.105V45.552C202.105 48.4107 202.702 50.5227 203.897 51.888C205.134 53.2107 206.862 53.872 209.081 53.872C210.617 53.872 211.982 53.552 213.177 52.912C214.372 52.2293 215.31 51.2053 215.993 49.84C216.676 48.432 217.017 46.6827 217.017 44.592V27.568H227.001V62H217.529V52.528L219.257 55.28C218.105 57.6693 216.398 59.4827 214.137 60.72C211.918 61.9147 209.486 62.512 206.841 62.512ZM235.611 62V27.568H245.147V37.296L243.803 34.48C244.827 32.048 246.469 30.2133 248.731 28.976C250.992 27.696 253.744 27.056 256.987 27.056V36.272C256.56 36.2293 256.176 36.208 255.835 36.208C255.493 36.1653 255.131 36.144 254.747 36.144C252.016 36.144 249.797 36.9333 248.091 38.512C246.427 40.048 245.595 42.4587 245.595 45.744V62H235.611ZM281.153 62V55.28L280.513 53.808V41.776C280.513 39.6427 279.852 37.9787 278.529 36.784C277.249 35.5893 275.265 34.992 272.577 34.992C270.742 34.992 268.929 35.2907 267.137 35.888C265.388 36.4427 263.894 37.2107 262.657 38.192L259.073 31.216C260.95 29.8933 263.212 28.8693 265.857 28.144C268.502 27.4187 271.19 27.056 273.921 27.056C279.169 27.056 283.244 28.2933 286.145 30.768C289.046 33.2427 290.497 37.104 290.497 42.352V62H281.153ZM270.657 62.512C267.969 62.512 265.665 62.064 263.745 61.168C261.825 60.2293 260.353 58.9707 259.329 57.392C258.305 55.8133 257.793 54.0427 257.793 52.08C257.793 50.032 258.284 48.24 259.265 46.704C260.289 45.168 261.889 43.9733 264.065 43.12C266.241 42.224 269.078 41.776 272.577 41.776H281.729V47.6H273.665C271.318 47.6 269.697 47.984 268.801 48.752C267.948 49.52 267.521 50.48 267.521 51.632C267.521 52.912 268.012 53.936 268.993 54.704C270.017 55.4293 271.404 55.792 273.153 55.792C274.817 55.792 276.31 55.408 277.633 54.64C278.956 53.8293 279.916 52.656 280.513 51.12L282.049 55.728C281.324 57.9467 280.001 59.632 278.081 60.784C276.161 61.936 273.686 62.512 270.657 62.512ZM319.501 62.768C313.144 62.768 308.173 60.9973 304.589 57.456C301.005 53.9147 299.213 48.8587 299.213 42.288V17.2H309.581V41.904C309.581 46.1707 310.456 49.2427 312.205 51.12C313.954 52.9973 316.408 53.936 319.565 53.936C322.722 53.936 325.176 52.9973 326.925 51.12C328.674 49.2427 329.549 46.1707 329.549 41.904V17.2H339.789V42.288C339.789 48.8587 337.997 53.9147 334.413 57.456C330.829 60.9973 325.858 62.768 319.501 62.768ZM349.395 62V17.2H359.763V62H349.395Z" fill="white"/>
</svg>
